# xmcd CD database file
#
# Track frame offsets:
#	150
#	16877
#	33577
#
# Disc length: 668 seconds
#
# Revision: 1
# Processed by: cddbd v1.5.1PL0 Copyright (c) Steve Scherf et al.
# Submitted via: CDex 1.51
#
DISCID=1a029a03
DTITLE=THE BOOM - 風になりたい
DYEAR=1995
DGENRE=J-POP
TTITLE0=風になりたい
TTITLE1=TOKYO LOVE
TTITLE2=風になりたい(オリジナル・カラオケ)
EXTD=YEAR: 1995
EXTT0=
EXTT1=
EXTT2=
PLAYORDER=
